<svg xmlns="http://www.w3.org/2000/svg" width="267" height="266" viewBox="0 0 267 266">
  <g fill="none" fill-rule="evenodd" transform="translate(3 3)">
    <path fill="#2CACE5" stroke="#535759" stroke-linecap="round" stroke-linejoin="round" stroke-width="5.586" d="M177.92558,88.3601109 L190.600383,65.3220964 L260.392927,166.68397 L232.566402,166.68397 L0,166.68397 L116.283201,0 L177.92558,88.3601109 Z"/>
    <path fill="#2CACE5" stroke="#535759" stroke-linecap="round" stroke-linejoin="round" stroke-width="5.586" d="M177.92558,88.3601109 L190.600383,65.3220964 L260.392927,166.68397 L232.566402,166.68397 L0,166.68397 L116.283201,0 L177.92558,88.3601109 Z"/>
    <polygon fill="#FFF" fill-opacity=".25" points="116.223 5.264 226.926 163.76 6.165 163.76"/>
    <path fill="#FFF" d="M116.335904,4.9712763 L59.5292875,86.4975889 C59.1628068,87.0235455 59.2920877,87.7470089 59.8180443,88.1134895 C60.1440593,88.3406532 60.5636212,88.3852613 60.9301125,88.2317255 L115.565797,65.3429591 C115.869143,65.2158768 116.212162,65.2234504 116.509604,65.3637975 L174.852775,92.8928652 C175.432522,93.1664176 176.124259,92.9181972 176.397811,92.3384494 C176.575021,91.9628832 176.538087,91.5212578 176.300955,91.1803444 L116.335904,4.9712763 Z"/>
    <polygon fill="#FFF" stroke="#535759" stroke-width="5.495" points="130.343 141.828 260.393 178.522 260.393 259.676 .294 259.676 .294 178.522" transform="rotate(-180 130.343 200.752)"/>
    <polygon fill="#535759" points="44.916 200.606 52.431 156.449 63.821 156.449 72.687 179.991 81.494 156.449 92.884 156.449 100.4 200.606 88.95 200.606 85.134 175.189 74.683 200.606 70.104 200.606 60.181 175.189 56.365 200.606"/>
    <text fill="#535759" font-family="Futura-Medium, Futura" font-size="14.509" font-weight="400" letter-spacing=".247">
      <tspan x="66.346" y="222.99">ELEVATION: $14K</tspan>
    </text>
    <polygon fill="#535759" points="140.324 166.17 126.612 166.17 126.612 173.549 139.559 173.549 139.559 183.271 126.612 183.271 126.612 190.884 140.324 190.884 140.324 200.606 115.078 200.606 115.078 156.449 140.324 156.449"/>
    <polygon fill="#535759" points="166.484 156.449 166.484 190.884 180.249 190.884 180.249 200.606 155.003 200.606 155.003 156.449"/>
    <polygon fill="#535759" points="206.18 166.17 206.18 200.606 194.684 200.606 194.684 166.17 185.24 166.17 185.24 156.449 215.624 156.449 215.624 166.17"/>
    <path stroke="#535759" stroke-width="3.482" d="M198.377137 217.127803L223.623801 217.127803M225.363744 217.127803L230.647929 217.127803"/>
    <path stroke="#535759" stroke-width="3.482" d="M35.5214703,217.127803 L60.7681351,217.127803" transform="rotate(-180 48.145 217.128)"/>
    <path stroke="#535759" stroke-width="3.482" d="M28.1823235,217.127803 L33.4665092,217.127803" transform="rotate(-180 30.824 217.128)"/>
    <path stroke="#979797" stroke-width=".5"/>
    <path fill="#535759" d="M130.343246,237.159122 L161.167663,240.668259 L130.343246,250.903239 L99.5188299,240.668259 L130.343246,237.159122 Z"/>
  </g>
</svg>
